<svg width="796" height="616" viewBox="0 0 796 616" fill="none" xmlns="http://www.w3.org/2000/svg">
<rect width="796" height="616" fill="#1E1E1E"/>
<g id="Slide 16:9 - 1">
<rect width="1920" height="1080" transform="translate(-562 -232)" fill="black"/>
<g id="undraw_ride_a_bicycle_re_6tjy 1" clip-path="url(#clip0_0_1)">
<g id="bg">
<path id="Vector" d="M627.026 232.927C624.667 230.56 621.864 228.683 618.776 227.405C615.689 226.126 612.379 225.471 609.037 225.478V210.661C609.04 207.27 608.373 203.912 607.077 200.778C605.78 197.645 603.879 194.798 601.481 192.4C599.083 190.002 596.236 188.1 593.102 186.804C589.969 185.507 586.611 184.841 583.22 184.843V173.677H589.364C591.993 173.677 594.514 172.632 596.373 170.774C598.231 168.915 599.275 166.394 599.275 163.766C599.275 161.137 598.231 158.616 596.373 156.758C594.514 154.899 591.993 153.855 589.364 153.855H583.22V146.108H580.18V153.855H572.846C570.218 153.855 567.697 154.899 565.838 156.758C563.98 158.616 562.935 161.137 562.935 163.766C562.935 166.394 563.98 168.915 565.838 170.774C567.697 172.632 570.218 173.677 572.846 173.677H580.18V184.843H561.251C559.45 184.843 557.667 185.197 556.004 185.886C554.34 186.575 552.829 187.585 551.555 188.858C550.282 190.131 549.272 191.643 548.584 193.306C547.895 194.97 547.54 196.752 547.54 198.553V225.478H543.163C536.408 225.477 529.719 226.807 523.478 229.392C517.238 231.977 511.567 235.766 506.79 240.542C502.014 245.319 498.225 250.989 495.64 257.23C493.055 263.471 491.725 270.16 491.726 276.915V312.898C482.378 315.591 473.921 320.734 467.228 327.793C460.535 334.853 455.851 343.573 453.66 353.05H431.113V330.268H417.444V320.688H425.835C428.463 320.688 430.984 319.644 432.843 317.785C434.701 315.927 435.746 313.406 435.746 310.777C435.746 308.149 434.701 305.628 432.843 303.769C430.984 301.911 428.463 300.866 425.835 300.866H417.444V294.577H414.406V300.866H409.317C406.688 300.866 404.167 301.911 402.309 303.769C400.45 305.628 399.406 308.149 399.406 310.777C399.406 313.406 400.45 315.927 402.309 317.785C404.167 319.644 406.688 320.688 409.317 320.688H414.406V330.309C410.916 330.511 407.636 332.04 405.236 334.582C402.836 337.124 401.498 340.487 401.497 343.982V353.132C388.365 353.859 376.011 359.587 366.972 369.139C357.933 378.692 352.896 391.343 352.895 404.495V615.041H491.726V615.042H634.476V250.916C634.482 247.574 633.827 244.264 632.549 241.177C631.27 238.09 629.393 235.286 627.026 232.927V232.927Z" fill="url(#paint0_linear_0_1)"/>
<path id="Vector_2" d="M285.824 225.474V210.665C285.824 207.275 285.156 203.917 283.859 200.785C282.561 197.652 280.659 194.806 278.262 192.409C275.864 190.011 273.018 188.109 269.885 186.812C266.753 185.514 263.395 184.846 260.005 184.846V184.846V170.374H266.017C268.645 170.374 271.166 169.33 273.025 167.472C274.883 165.613 275.928 163.092 275.928 160.463C275.928 157.835 274.883 155.314 273.025 153.455C271.166 151.597 268.645 150.553 266.017 150.553H260.005V146.117H256.967V150.553H249.499C246.87 150.553 244.349 151.597 242.491 153.455C240.632 155.314 239.588 157.835 239.588 160.463C239.588 163.092 240.632 165.613 242.491 167.472C244.349 169.33 246.87 170.374 249.499 170.374H256.967V184.846H238.027C236.226 184.846 234.443 185.201 232.779 185.89C231.115 186.579 229.603 187.589 228.33 188.863C227.057 190.136 226.046 191.648 225.357 193.312C224.668 194.976 224.313 196.759 224.313 198.56V225.474H219.942C206.298 225.474 193.213 230.894 183.566 240.541C173.918 250.189 168.498 263.274 168.498 276.918V310.251C159.851 313.976 152.316 319.876 146.625 327.376C140.935 334.876 137.282 343.722 136.022 353.052H107.893V330.27H94.2241V317.386H99.1833C101.812 317.386 104.333 316.342 106.191 314.483C108.05 312.625 109.094 310.104 109.094 307.475C109.094 304.847 108.05 302.326 106.191 300.467C104.333 298.608 101.812 297.564 99.1833 297.564H94.2241V294.578H91.1864V297.564H82.6652C80.0367 297.564 77.5158 298.608 75.6571 300.467C73.7985 302.326 72.7543 304.847 72.7543 307.475C72.7543 310.104 73.7985 312.625 75.6571 314.483C77.5158 316.342 80.0367 317.386 82.6652 317.386H91.1864V330.31C87.6965 330.513 84.4158 332.041 82.016 334.583C79.6161 337.125 78.2784 340.488 78.2767 343.984V353.133C65.1456 353.86 52.7914 359.588 43.7525 369.141C34.7135 378.693 29.6762 391.345 29.6756 404.496V615.042H311.264V250.913C311.264 247.573 310.606 244.264 309.327 241.178C308.049 238.091 306.175 235.287 303.813 232.925C301.45 230.562 298.646 228.689 295.559 227.41C292.473 226.132 289.165 225.474 285.824 225.474V225.474Z" fill="url(#paint1_linear_0_1)"/>
</g>
<g id="wheel">
<path id="Vector_3" d="M621.354 613.911C598.811 613.911 576.774 607.226 558.03 594.702C539.286 582.178 524.677 564.377 516.05 543.55C507.423 522.723 505.166 499.805 509.564 477.695C513.962 455.585 524.818 435.276 540.758 419.336C556.698 403.395 577.008 392.54 599.117 388.142C621.227 383.744 644.145 386.001 664.972 394.628C685.799 403.255 703.6 417.864 716.124 436.608C728.649 455.352 735.333 477.389 735.333 499.932C735.299 530.15 723.28 559.122 701.912 580.49C680.544 601.858 651.573 613.877 621.354 613.911ZM621.354 396.506C600.898 396.506 580.902 402.571 563.893 413.936C546.885 425.301 533.629 441.454 525.801 460.352C517.973 479.251 515.924 500.046 519.915 520.109C523.906 540.172 533.756 558.6 548.221 573.065C562.685 587.529 581.114 597.38 601.176 601.37C621.239 605.361 642.035 603.313 660.933 595.485C679.832 587.657 695.985 574.4 707.349 557.392C718.714 540.384 724.78 520.387 724.78 499.932C724.749 472.511 713.842 446.222 694.453 426.833C675.063 407.443 648.775 396.537 621.354 396.506Z" fill="#3F3D56"/>
<path id="Vector_4" d="M152.914 615.465C131.553 615.465 110.672 609.131 92.912 597.264C75.1515 585.396 61.3088 568.529 53.1346 548.795C44.9603 529.06 42.8215 507.345 46.9888 486.395C51.156 465.445 61.442 446.201 76.546 431.097C91.6501 415.993 110.894 405.707 131.844 401.54C152.794 397.373 174.509 399.512 194.243 407.686C213.978 415.86 230.845 429.703 242.712 447.463C254.579 465.224 260.914 486.105 260.914 507.465C260.881 536.098 249.492 563.55 229.245 583.797C208.998 604.044 181.547 615.433 152.914 615.465ZM152.914 409.465C133.531 409.465 114.584 415.213 98.4677 425.981C82.3517 436.749 69.7908 452.055 62.3734 469.962C54.956 487.869 53.0153 507.574 56.7966 526.584C60.578 545.594 69.9116 563.056 83.6171 576.761C97.3227 590.467 114.785 599.8 133.795 603.582C152.805 607.363 172.509 605.422 190.417 598.005C208.324 590.588 223.629 578.027 234.398 561.911C245.166 545.795 250.914 526.847 250.914 507.465C250.884 481.483 240.55 456.573 222.178 438.201C203.805 419.829 178.896 409.494 152.914 409.465Z" fill="#3F3D56"/>
</g>
<path id="Vector_5" d="M795.335 614.465C795.335 614.622 795.305 614.777 795.245 614.921C795.186 615.066 795.098 615.197 794.987 615.308C794.877 615.419 794.746 615.506 794.601 615.566C794.456 615.625 794.301 615.656 794.145 615.655H1.85498C1.53937 615.655 1.23669 615.53 1.01352 615.307C0.790351 615.084 0.664978 614.781 0.664978 614.465C0.664978 614.15 0.790351 613.847 1.01352 613.624C1.23669 613.401 1.53937 613.275 1.85498 613.275H794.145C794.301 613.275 794.456 613.305 794.601 613.365C794.746 613.425 794.877 613.512 794.987 613.623C795.098 613.733 795.186 613.865 795.245 614.009C795.305 614.154 795.335 614.309 795.335 614.465V614.465Z" fill="#CCCCCC"/>
<g id="sky">
<path id="Vector_6" d="M665.527 184.85C680.274 184.85 692.228 172.896 692.228 158.15C692.228 143.403 680.274 131.449 665.527 131.449C650.781 131.449 638.826 143.403 638.826 158.15C638.826 172.896 650.781 184.85 665.527 184.85Z" fill="#FD6584"/>
<path id="Vector_7" d="M725.29 145.508C724.535 143.038 723.074 140.843 721.088 139.192C719.102 137.542 716.677 136.507 714.11 136.217C714.052 136.209 713.997 136.22 713.94 136.216C713.865 136.193 713.789 136.176 713.712 136.163C701.501 134.585 687.406 140.425 682.317 152.002C681.075 150.309 679.44 148.943 677.553 148.023C675.665 147.104 673.582 146.657 671.484 146.723C668.778 146.903 666.193 147.913 664.081 149.615C661.97 151.317 660.434 153.628 659.683 156.234C659.603 156.553 659.627 156.889 659.751 157.194C659.875 157.498 660.093 157.755 660.373 157.928C661.179 158.611 662.135 159.096 663.162 159.344C665.38 159.814 667.605 160.244 669.839 160.635C674.196 161.398 678.577 162.014 682.981 162.485C691.919 163.443 700.913 163.783 709.899 163.502C712.891 163.409 715.777 163.31 718.519 161.989C720.514 161.004 722.218 159.516 723.464 157.673C724.639 155.902 725.41 153.895 725.726 151.793C726.041 149.691 725.892 147.546 725.29 145.508V145.508Z" fill="#F0F0F0"/>
<path id="Vector_8" d="M669.794 181.109C669.039 178.639 667.578 176.444 665.592 174.793C663.606 173.143 661.181 172.109 658.615 171.818C658.557 171.81 658.502 171.821 658.444 171.817C658.369 171.794 658.293 171.777 658.216 171.764C646.005 170.186 631.91 176.026 626.821 187.603C625.579 185.909 623.944 184.544 622.057 183.624C620.169 182.705 618.086 182.258 615.988 182.324C613.282 182.504 610.697 183.514 608.586 185.216C606.474 186.918 604.938 189.229 604.187 191.835C604.108 192.154 604.131 192.49 604.255 192.795C604.379 193.099 604.597 193.356 604.877 193.529C605.683 194.212 606.639 194.697 607.666 194.945C609.884 195.415 612.109 195.845 614.343 196.236C618.701 196.999 623.081 197.615 627.485 198.086C636.423 199.044 645.417 199.384 654.403 199.103C657.395 199.01 660.281 198.911 663.023 197.59C665.018 196.604 666.722 195.117 667.969 193.274C669.143 191.503 669.915 189.496 670.23 187.394C670.545 185.292 670.397 183.147 669.794 181.109V181.109Z" fill="#F0F0F0"/>
</g>
<g id="bike">
<path id="Vector_9" d="M284.975 360.693L168.78 402.244L172.148 411.66L288.343 370.109L284.975 360.693Z" fill="#3F3D56"/>
<path id="Vector_10" d="M312.15 521.429L281.874 495.288C279.767 493.468 278.47 490.885 278.267 488.109C278.064 485.332 278.972 482.588 280.792 480.481C282.611 478.374 285.193 477.075 287.97 476.871C290.746 476.667 293.49 477.574 295.598 479.393L325.874 505.535C326.918 506.436 327.775 507.533 328.395 508.765C329.015 509.998 329.386 511.34 329.487 512.715C329.588 514.091 329.417 515.473 328.984 516.782C328.551 518.092 327.864 519.303 326.962 520.347C326.061 521.391 324.963 522.247 323.73 522.866C322.498 523.486 321.156 523.856 319.78 523.957C318.405 524.057 317.023 523.886 315.714 523.452C314.404 523.018 313.193 522.331 312.15 521.429V521.429Z" fill="#3F3D56"/>
<path id="Vector_11" d="M484.447 476.264L448.354 493.507C445.842 494.708 442.955 494.861 440.329 493.933C437.704 493.005 435.554 491.072 434.354 488.559C433.153 486.047 433 483.16 433.928 480.534C434.856 477.909 436.789 475.759 439.301 474.559L475.394 457.315C477.907 456.115 480.793 455.962 483.419 456.889C486.045 457.817 488.194 459.75 489.394 462.263C490.595 464.776 490.748 467.662 489.82 470.288C488.892 472.914 486.959 475.063 484.447 476.264V476.264Z" fill="#3F3D56"/>
<path id="Vector_12" d="M626.374 523.911C635.211 523.911 642.374 516.748 642.374 507.911C642.374 499.075 635.211 491.911 626.374 491.911C617.537 491.911 610.374 499.075 610.374 507.911C610.374 516.748 617.537 523.911 626.374 523.911Z" fill="#3F3D56"/>
<path id="Vector_13" d="M152.913 523.465C161.75 523.465 168.913 516.301 168.913 507.465C168.913 498.628 161.75 491.465 152.913 491.465C144.077 491.465 136.913 498.628 136.913 507.465C136.913 516.301 144.077 523.465 152.913 523.465Z" fill="#3F3D56"/>
<path id="Vector_14" d="M369.913 524.018C380.16 524.018 388.467 515.711 388.467 505.465C388.467 495.218 380.16 486.911 369.913 486.911C359.667 486.911 351.36 495.218 351.36 505.465C351.36 515.711 359.667 524.018 369.913 524.018Z" fill="#3F3D56"/>
<path id="Vector_15" d="M157.022 506.331L149.726 499.492L279.961 360.559L512.373 291.002L627.718 493.436L619.03 498.387L507.622 302.863L285.413 369.366L157.022 506.331Z" fill="#3F3D56"/>
<path id="Vector_16" d="M354.157 500.023H255.884V510.023H354.157V500.023Z" fill="#3F3D56"/>
<path id="Vector_17" d="M287.687 312.679H277.687V364.962H287.687V312.679Z" fill="#3F3D56"/>
<path id="Vector_18" d="M482.132 194.375L472.616 197.448L505.239 298.469L514.755 295.396L482.132 194.375Z" fill="#3F3D56"/>
<path id="Vector_19" d="M286.689 358.384L278.059 363.438L360.059 503.438L368.689 498.384L286.689 358.384Z" fill="#3F3D56"/>
<path id="Vector_20" d="M556.553 378.775L380.561 498.786L386.195 507.048L562.187 387.036L556.553 378.775Z" fill="#3F3D56"/>
<path id="Vector_21" d="M301.874 318.911H261.874C259.089 318.911 256.419 317.805 254.449 315.836C252.48 313.867 251.374 311.196 251.374 308.411C251.374 305.626 252.48 302.956 254.449 300.987C256.419 299.017 259.089 297.911 261.874 297.911H301.874C304.659 297.911 307.33 299.017 309.299 300.987C311.268 302.956 312.374 305.626 312.374 308.411C312.374 311.196 311.268 313.867 309.299 315.836C307.33 317.805 304.659 318.911 301.874 318.911V318.911Z" fill="#6C63FF"/>
<path id="Vector_22" d="M496.874 205.911H456.874C454.089 205.911 451.419 204.805 449.449 202.836C447.48 200.867 446.374 198.196 446.374 195.411C446.374 192.626 447.48 189.956 449.449 187.987C451.419 186.017 454.089 184.911 456.874 184.911H496.874C499.659 184.911 502.33 186.017 504.299 187.987C506.268 189.956 507.374 192.626 507.374 195.411C507.374 198.196 506.268 200.867 504.299 202.836C502.33 204.805 499.659 205.911 496.874 205.911Z" fill="#6C63FF"/>
<path id="Vector_23" d="M526.534 328.938L493.14 258.447L493.592 258.234C495.906 257.137 498.414 256.507 500.971 256.38C503.529 256.253 506.087 256.63 508.498 257.491C510.91 258.353 513.128 259.68 515.027 261.399C516.925 263.117 518.466 265.193 519.562 267.507L536.259 302.753C537.356 305.067 537.986 307.575 538.113 310.132C538.24 312.69 537.863 315.247 537.001 317.659C536.14 320.071 534.812 322.289 533.094 324.187C531.375 326.086 529.3 327.627 526.985 328.723L526.534 328.938Z" fill="#3F3D56"/>
<path id="Vector_24" d="M424.456 341.327C420.251 341.316 416.163 339.949 412.798 337.428C409.434 334.907 406.972 331.368 405.78 327.337L405.638 326.857L480.45 304.783L480.591 305.263C481.316 307.719 481.55 310.294 481.28 312.84C481.009 315.387 480.24 317.855 479.016 320.104C477.791 322.353 476.136 324.339 474.144 325.949C472.152 327.558 469.863 328.759 467.407 329.484L430.001 340.521C428.201 341.054 426.333 341.326 424.456 341.327V341.327Z" fill="#3F3D56"/>
</g>
<g id="girl">
<path id="Vector_25" d="M434.071 462.809L447.684 459.451L441.391 404.154L421.299 409.112L434.071 462.809Z" fill="#FFB6B6"/>
<path id="Vector_26" d="M427.624 446.941L448.869 437.042L452.553 446.364L478.886 452.475C480.187 452.776 481.357 453.486 482.226 454.5C483.094 455.513 483.616 456.778 483.715 458.11C483.814 459.441 483.485 460.769 482.776 461.901C482.067 463.032 481.014 463.906 479.773 464.397L453.869 474.636L445.759 467.179L447.66 477.089L437.894 480.95L427.624 446.941Z" fill="#2F2E41"/>
<path id="Vector_27" d="M448.447 412.981L419.421 430.388L388.463 321.056C338.243 320.628 291.808 315.005 253.895 297.687C241.05 291.871 235.337 276.489 241.133 263.331C241.404 262.716 241.698 262.112 242.015 261.519C249.395 247.866 263.703 239.849 276.398 225.66L339.374 248.911L334.861 265.87L406.098 269.446C420.424 270.165 431.377 282.608 430.562 297.239C430.519 298.011 430.443 298.781 430.333 299.548L448.447 412.981Z" fill="#2F2E41"/>
<path id="Vector_28" d="M493.385 198.91C491.625 199.91 489.668 200.512 487.65 200.673C485.633 200.835 483.604 200.552 481.708 199.844C479.812 199.137 478.094 198.023 476.675 196.579C475.256 195.136 474.17 193.399 473.495 191.491L362.067 183.956L376.011 162.527L482.822 173.363C486.103 172.441 489.608 172.755 492.672 174.244C495.737 175.734 498.149 178.296 499.451 181.445C500.753 184.594 500.855 188.111 499.737 191.33C498.619 194.549 496.359 197.246 493.385 198.91V198.91Z" fill="#FFB6B6"/>
<path id="Vector_29" d="M308.149 101.939C308.149 101.939 291.236 107.168 295.264 127.032C299.293 146.895 350.139 184.368 358.154 190.653C366.168 196.939 432.865 188.467 432.865 188.467L450.093 166.497L385.137 157.312L308.149 101.939Z" fill="#6C63FF"/>
<path id="Vector_30" d="M309.907 462.92L320.651 471.911L361.215 433.825L345.358 420.556L309.907 462.92Z" fill="#FFB6B6"/>
<path id="Vector_31" d="M341.693 459.879L318.94 444.174L378.848 349.192C335.428 323.955 305.567 293.167 281.203 259.349C272.923 247.936 267.875 234.654 279.427 226.092C279.967 225.692 280.521 225.313 281.09 224.955C294.262 216.747 289.986 229.048 308.041 223.006L324.355 240.409L359.602 274.706L419.723 313.084C431.814 320.802 435.169 337.036 427.217 349.344C426.797 349.994 426.349 350.625 425.875 351.237L341.693 459.879Z" fill="#2F2E41"/>
<path id="Vector_32" d="M311.268 455.596L330.106 469.541L323.673 477.228L330.872 503.284C331.227 504.571 331.162 505.938 330.686 507.185C330.21 508.433 329.348 509.495 328.225 510.218C327.102 510.94 325.778 511.285 324.445 511.201C323.113 511.118 321.842 510.611 320.818 509.754L299.457 491.877L302.139 481.192L294.338 487.593L286.284 480.853L311.268 455.596Z" fill="#2F2E41"/>
<path id="Vector_33" d="M484.135 219.412C482.221 220.072 480.187 220.304 478.174 220.092C476.161 219.881 474.219 219.231 472.484 218.188C470.75 217.144 469.265 215.734 468.135 214.055C467.005 212.375 466.257 210.469 465.943 208.47L357.789 180.62L375.427 162.113L478.438 192.36C481.832 192.056 485.22 193.007 487.959 195.034C490.699 197.06 492.6 200.021 493.302 203.356C494.004 206.69 493.459 210.166 491.769 213.125C490.079 216.085 487.363 218.321 484.135 219.412H484.135Z" fill="#FFB6B6"/>
<path id="Vector_34" d="M325.306 74.934L344.659 85.0532C345.728 85.48 346.637 86.2296 347.26 87.1977C347.883 88.1657 348.188 89.304 348.134 90.4539L353.175 110.626L370.912 148.169C370.912 148.169 375.534 168.15 366.714 187.016C357.894 205.882 338.374 252.911 338.374 252.911C325.643 283.405 221.141 259.856 248.374 233.911C251.614 230.824 269.827 204.748 276.491 203.249L292.841 109.683C293.665 104.743 295.572 100.047 298.426 95.931C301.279 91.815 305.007 88.3814 309.344 85.8763C311.964 84.3955 314.392 83.5187 316.057 83.9661C319.85 84.8502 321.643 76.2592 325.306 74.934Z" fill="#6C63FF"/>
<path id="Vector_35" d="M319.833 90.1038C319.833 90.1038 302.247 92.1413 302.563 112.407C302.879 132.672 345.987 178.837 352.713 186.486C359.438 194.134 426.557 198.042 426.557 198.042L447.524 179.606L385.355 158.661L319.833 90.1038Z" fill="#6C63FF"/>
<path id="Vector_36" d="M348.473 75.2195C364.572 72.4825 375.404 57.2131 372.667 41.1142C369.93 25.0154 354.66 14.1835 338.561 16.9205C322.462 19.6575 311.631 34.9269 314.368 51.0258C317.104 67.1246 332.374 77.9565 348.473 75.2195Z" fill="#FFB6B6"/>
<path id="Vector_37" d="M375.056 36.2883C370.591 38.4877 365.535 35.3 361.629 32.1299L363.027 33.3123C356.249 40.0435 353.147 49.6595 351.68 59.109C350.211 68.5487 350.136 78.1878 348.261 87.5647C346.384 96.9317 342.389 106.365 334.804 112.168C324.644 119.941 310.516 119.594 297.925 117.373C297.757 117.341 297.601 117.317 297.433 117.284C300.714 107.487 301.982 97.1279 301.161 86.8286C297.899 97.1917 292.262 106.65 284.698 114.449C276.343 112.242 268.18 109.362 260.289 105.838C255.184 103.551 249.679 100.409 248.213 95.0088C246.744 89.6492 249.969 83.9784 254.325 80.5398C258.68 77.1012 264.05 75.2753 269.026 72.8063C273.995 70.3488 278.901 66.8673 280.847 61.6676C285.335 49.706 272.059 36.1698 277.058 24.4056C279.523 18.6205 285.674 15.4243 291.461 12.9493C300.296 9.18091 309.375 6.01403 318.637 3.47036C326.768 1.23598 335.263 -0.522776 343.583 0.801524C351.902 2.12581 360.091 7.09358 363.161 14.9501C368.166 16.5844 373.48 18.4298 376.724 22.595C379.967 26.7502 379.783 33.9631 375.056 36.2883Z" fill="#2F2E41"/>
</g>
</g>
</g>
<defs>
<linearGradient id="paint0_linear_0_1" x1="493.686" y1="146.108" x2="493.686" y2="615.042" gradientUnits="userSpaceOnUse">
<stop stop-color="#CF3E00"/>
<stop offset="1" stop-color="#692000" stop-opacity="0"/>
</linearGradient>
<linearGradient id="paint1_linear_0_1" x1="170.47" y1="146.117" x2="170.47" y2="615.042" gradientUnits="userSpaceOnUse">
<stop stop-color="#CF3E00"/>
<stop offset="1" stop-color="#692000" stop-opacity="0"/>
</linearGradient>
<clipPath id="clip0_0_1">
<rect width="794.67" height="615.311" fill="white" transform="translate(0.664978 0.344635)"/>
</clipPath>
</defs>
</svg>
